<svg id="Layer_1" data-name="Layer 1" xmlns="http://www.w3.org/2000/svg" viewBox="0 0 409.6 409.6"><defs><style>.cls-1{fill:#95ba95;}.cls-2{fill:#c56e76;}.cls-3{fill:#bae2ba;}</style></defs><path class="cls-1" d="M409.11,273.53c-1.41,2.33-1.17,5-1.74,7.56-7.46,33.57-26.54,58.13-58.58,70.59-37.49,14.59-71.69,7.17-101.65-19.7a4.31,4.31,0,0,1-.87-.83c-4-6.71-10-7.45-17.28-7.4-49.08.29-98.17.46-147.25,0-34.31-.29-59.34-16.37-74.21-47.41-14.4-30.07-6-69.37,18.9-91.46a75,75,0,0,1,11.06-8.49c1.94-1.16,2.55-2.41,2.26-4.83-3.23-27.07,5.09-50,25.55-68C81,89.76,99.49,83.66,120.49,85.29a73,73,0,0,1,32.38,10.09c2.48,1.48,3.5.85,5-1.25a99,99,0,0,1,43.11-35c27.38-11.51,54.94-11.57,82,.44,27.52,12.2,46.32,33,56.08,61.57a99.66,99.66,0,0,1,1.61,60.14c-2,7.21-6.82,9.93-14.65,8.6a73.87,73.87,0,0,0-79.22,40.91c-20.3,41.91,3.08,92.37,48.11,103.89,48,12.28,94.7-25.48,92.43-74.83a73.52,73.52,0,0,0-14.58-41.14c-1.66-2.23-3.62-4.3-4.32-7.11a10.8,10.8,0,0,1,19-9.41,97.85,97.85,0,0,1,19.29,39.45c.88,3.67.69,7.58,2.4,11.06v3.2a6.15,6.15,0,0,0,0,4.8Z"/><path class="cls-2" d="M409.11,260.74c-1.13-1.6-1.31-3.2,0-4.8Z"/><path class="cls-1" d="M289.89,228.76a11.81,11.81,0,0,1,8.36,3.65c4.41,4.44,8.9,8.81,13.23,13.32,1.44,1.5,2.33,1.57,3.81,0,4.23-4.42,8.58-8.74,13-13,5.12-5,11.42-5.28,16-.83s4.46,10.83-.48,16q-6.35,6.65-13,13c-1.63,1.56-1.7,2.54,0,4.13,4.34,4.13,8.53,8.41,12.73,12.69,5.16,5.27,5.45,11.74.8,16.29-4.48,4.38-10.93,4.06-16-.88-4.29-4.19-8.59-8.37-12.67-12.75-1.74-1.86-2.72-1.71-4.37.05-4,4.26-8.2,8.36-12.39,12.46-5.24,5.14-11.75,5.54-16.29,1.09-4.71-4.61-4.29-11.11,1.12-16.59,4.11-4.18,8.2-8.38,12.44-12.42,1.61-1.54,1.72-2.45,0-4.06-4.8-4.61-9.5-9.34-14.05-14.19-3.13-3.33-3.61-7.37-1.79-11.51S285.63,229.1,289.89,228.76Z"/><path class="cls-3" d="M149.92,302.26c-22.87,0-45.75.07-68.63,0-28.57-.12-52-18.65-57.79-46.68-4.69-22.82,2.9-41.86,20.32-57.14,2-1.72,2.52-.72,3.44.86a74.08,74.08,0,0,0,23.27,24.78A74.84,74.84,0,0,0,113,236.82c6.5,0,11.18-4.32,11.33-10.33.15-6.39-4.2-11-10.85-11.3a53.19,53.19,0,0,1-32.31-11.93c-11.92-9.7-18.78-22.15-20.21-37.57a54,54,0,0,1,43.32-58c16.76-3.22,31.87.7,45.12,11.55,2.49,2,5,4,8.26,4.59,4.46.76,8.88-1.94,11.71-7.28a85.18,85.18,0,0,1,26.38-29.95c27.86-19.83,67.48-18.85,95.61,3.14,22.18,17.35,32.2,40.71,31.39,68.76-.25,8.68-.47,8.67-9,8.66a95.82,95.82,0,0,0-94.31,78,93,93,0,0,0,5,52.87c1.66,4.14,1.62,4.18-2.73,4.18Z"/></svg>