<svg width="49" height="49" viewBox="0 0 49 49" fill="none" xmlns="http://www.w3.org/2000/svg">
<path d="M6.01599 19.571V42.985H14.547V31.61C14.547 30.8558 14.8466 30.1324 15.38 29.599C15.9133 29.0657 16.6367 28.766 17.391 28.766H20.235C20.9893 28.766 21.7126 29.0657 22.246 29.599C22.7794 30.1324 23.079 30.8558 23.079 31.61V42.985H42.985V19.571" stroke="black" stroke-width="2.5" stroke-linecap="round" stroke-linejoin="round"/>
<path d="M45.828 21.656L26.182 7.24797C25.6943 6.89041 25.1053 6.69763 24.5005 6.69763C23.8957 6.69763 23.3067 6.89041 22.819 7.24797L3.172 21.656" stroke="black" stroke-width="2.5" stroke-linecap="round" stroke-linejoin="round"/>
<path d="M31.609 11.229V6.01501H40.14V17.485" stroke="black" stroke-width="2.5" stroke-linecap="round" stroke-linejoin="round"/>
<path d="M28.766 28.766H37.297V37.297H28.766V28.766Z" stroke="black" stroke-width="2.5" stroke-linecap="round" stroke-linejoin="round"/>
<path d="M3.172 42.984H45.828" stroke="black" stroke-width="2.5" stroke-linecap="round" stroke-linejoin="round"/>
</svg>
