<svg width="49" height="49" viewBox="0 0 49 49" fill="none" xmlns="http://www.w3.org/2000/svg">
<path d="M25.9221 20.342C25.9215 18.2146 25.3243 16.13 24.1984 14.325C23.0726 12.52 21.463 11.067 19.5527 10.1308C17.6424 9.19465 15.5079 8.81295 13.3915 9.02907C11.2752 9.24519 9.26185 10.0505 7.5802 11.3534C5.89854 12.6564 4.61597 14.4048 3.87816 16.4001C3.14034 18.3954 2.97685 20.5577 3.40625 22.6412C3.83565 24.7248 4.84074 26.6462 6.30735 28.1872C7.77397 29.7282 9.64333 30.8271 11.7031 31.359V42.992C11.7031 43.7462 12.0028 44.4696 12.5361 45.003C13.0695 45.5363 13.7928 45.836 14.5471 45.836C15.3014 45.836 16.0248 45.5363 16.5581 45.003C17.0915 44.4696 17.3911 43.7462 17.3911 42.992V31.359C19.8333 30.7283 21.9966 29.3039 23.5409 27.3096C25.0852 25.3153 25.9228 22.8643 25.9221 20.342Z" stroke="black" stroke-width="2.5" stroke-linecap="round" stroke-linejoin="round"/>
<path d="M27.463 31.609C28.9486 31.4041 30.3786 30.9062 31.67 30.144L40.973 39.445C41.5103 39.9586 42.2271 40.2414 42.9703 40.233C43.7134 40.2246 44.4237 39.9257 44.9492 39.4002C45.4747 38.8747 45.7736 38.1644 45.782 37.4213C45.7904 36.6781 45.5076 35.9613 44.994 35.424L35.685 26.123C36.9624 23.9599 37.4876 21.4347 37.179 18.9416C36.8703 16.4485 35.7449 14.1277 33.9786 12.3414C32.2123 10.5551 29.9043 9.40374 27.4148 9.06702C24.9254 8.7303 22.3944 9.22715 20.217 10.48" stroke="black" stroke-width="2.5" stroke-linecap="round" stroke-linejoin="round"/>
<path d="M11.7029 18.921C11.7029 19.6753 12.0025 20.3987 12.5359 20.932C13.0692 21.4654 13.7926 21.765 14.5469 21.765C15.3012 21.765 16.0245 21.4654 16.5579 20.932C17.0912 20.3987 17.3909 19.6753 17.3909 18.921C17.3909 18.1668 17.0912 17.4434 16.5579 16.91C16.0245 16.3767 15.3012 16.077 14.5469 16.077C13.7926 16.077 13.0692 16.3767 12.5359 16.91C12.0025 17.4434 11.7029 18.1668 11.7029 18.921Z" stroke="black" stroke-width="2.5" stroke-linecap="round" stroke-linejoin="round"/>
<path d="M14.5471 16.077V7.43799C14.5643 6.31802 15.0212 5.24973 15.8193 4.46378C16.6174 3.67784 17.6925 3.2373 18.8126 3.2373C19.9327 3.2373 21.0079 3.67784 21.806 4.46378C22.604 5.24973 23.061 6.31802 23.0781 7.43799V9.31299" stroke="black" stroke-width="2.5" stroke-linecap="round" stroke-linejoin="round"/>
</svg>
