<svg width="53" height="51" viewBox="0 0 53 51" fill="none" xmlns="http://www.w3.org/2000/svg">
<path d="M19.8377 39.6009V12.9302H7.61137C5.87809 13.073 4.26916 13.8872 3.12762 15.1993C1.98609 16.5114 1.40229 18.2175 1.50068 19.9539V37.2688C1.46976 37.8477 1.66618 38.4157 2.04808 38.8518C2.42998 39.288 2.96713 39.5577 3.54502 39.6034H7.05563" stroke="black" stroke-width="2.5" stroke-linecap="round" stroke-linejoin="round"/>
<path d="M7.05617 39.6009C7.04134 40.2669 7.15971 40.9292 7.40434 41.5489C7.64897 42.1686 8.01492 42.7331 8.48073 43.2094C8.94653 43.6857 9.50279 44.0641 10.1169 44.3225C10.7309 44.5809 11.3904 44.714 12.0566 44.714C12.7228 44.714 13.3823 44.5809 13.9964 44.3225C14.6104 44.0641 15.1667 43.6857 15.6325 43.2094C16.0983 42.7331 16.4643 42.1686 16.7089 41.5489C16.9535 40.9292 17.0719 40.2669 17.0571 39.6009C17.0719 38.9348 16.9535 38.2725 16.7089 37.6529C16.4643 37.0332 16.0983 36.4687 15.6325 35.9924C15.1667 35.5161 14.6104 35.1376 13.9964 34.8793C13.3823 34.6209 12.7228 34.4878 12.0566 34.4878C11.3904 34.4878 10.7309 34.6209 10.1169 34.8793C9.50279 35.1376 8.94653 35.5161 8.48073 35.9924C8.01492 36.4687 7.64897 37.0332 7.40434 37.6529C7.15971 38.2725 7.04134 38.9348 7.05617 39.6009Z" stroke="black" stroke-width="2.5" stroke-linecap="round" stroke-linejoin="round"/>
<path d="M33.1729 39.6009C33.158 40.2669 33.2764 40.9292 33.521 41.5489C33.7657 42.1686 34.1316 42.7331 34.5974 43.2094C35.0632 43.6857 35.6195 44.0641 36.2336 44.3225C36.8476 44.5809 37.5071 44.714 38.1733 44.714C38.8395 44.714 39.499 44.5809 40.1131 44.3225C40.7271 44.0641 41.2834 43.6857 41.7492 43.2094C42.215 42.7331 42.581 42.1686 42.8256 41.5489C43.0702 40.9292 43.1886 40.2669 43.1738 39.6009C43.1886 38.9348 43.0702 38.2725 42.8256 37.6529C42.581 37.0332 42.215 36.4687 41.7492 35.9924C41.2834 35.5161 40.7271 35.1376 40.1131 34.8793C39.499 34.6209 38.8395 34.4878 38.1733 34.4878C37.5071 34.4878 36.8476 34.6209 36.2336 34.8793C35.6195 35.1376 35.0632 35.5161 34.5974 35.9924C34.1316 36.4687 33.7657 37.0332 33.521 37.6529C33.2764 38.2725 33.158 38.9348 33.1729 39.6009Z" stroke="black" stroke-width="2.5" stroke-linecap="round" stroke-linejoin="round"/>
<path d="M1.50073 22.9336H11.2362C11.4919 22.9397 11.7461 22.8938 11.9835 22.7987C12.221 22.7036 12.4366 22.5612 12.6173 22.3803C12.7981 22.1993 12.9401 21.9835 13.035 21.746C13.1298 21.5084 13.1753 21.2541 13.1689 20.9984V12.9525" stroke="black" stroke-width="2.5" stroke-linecap="round" stroke-linejoin="round"/>
<path d="M17.0591 39.601H33.1732" stroke="black" stroke-width="2.5" stroke-linecap="round" stroke-linejoin="round"/>
<path d="M1.50073 30.7113H6.96885" stroke="black" stroke-width="2.5" stroke-linecap="round" stroke-linejoin="round"/>
<path d="M51.5071 28.4885H19.8372V9.62048C19.8372 8.73612 20.1885 7.88799 20.8138 7.26265C21.4391 6.63732 22.2873 6.28601 23.1716 6.28601H48.1751C49.0595 6.28601 49.9076 6.63732 50.5329 7.26265C51.1583 7.88799 51.5096 8.73612 51.5096 9.62048L51.5071 28.4885Z" stroke="black" stroke-width="2.5" stroke-linecap="round" stroke-linejoin="round"/>
<path d="M43.1738 39.6008H48.1755C49.0599 39.6008 49.908 39.2495 50.5333 38.6242C51.1587 37.9988 51.51 37.1507 51.51 36.2663V28.4884" stroke="black" stroke-width="2.5" stroke-linecap="round" stroke-linejoin="round"/>
</svg>
