<svg width="49" height="49" viewBox="0 0 49 49" fill="none" xmlns="http://www.w3.org/2000/svg">
<path d="M15.978 22.358C15.7894 22.358 15.6086 22.2831 15.4752 22.1498C15.3419 22.0164 15.267 21.8356 15.267 21.647C15.267 21.4585 15.3419 21.2776 15.4752 21.1443C15.6086 21.0109 15.7894 20.936 15.978 20.936" stroke="black" stroke-width="2.5"/>
<path d="M15.978 22.358C16.1666 22.358 16.3474 22.2831 16.4808 22.1498C16.6141 22.0164 16.689 21.8356 16.689 21.647C16.689 21.4585 16.6141 21.2776 16.4808 21.1443C16.3474 21.0109 16.1666 20.936 15.978 20.936" stroke="black" stroke-width="2.5"/>
<path d="M37.2969 8.85901H33.5049C32.9089 8.85079 32.3289 9.05248 31.8666 9.42876C31.4043 9.80504 31.089 10.3319 30.976 10.9172C30.863 11.5025 30.9594 12.1089 31.2485 12.6303C31.5375 13.1516 32.0007 13.5547 32.5569 13.769L36.4619 15.324C37.0182 15.5383 37.4814 15.9414 37.7704 16.4627C38.0594 16.9841 38.1559 17.5905 38.0429 18.1758C37.9299 18.7611 37.6146 19.288 37.1523 19.6643C36.6899 20.0405 36.11 20.2422 35.5139 20.234H31.7219" stroke="black" stroke-width="2.5" stroke-linecap="round" stroke-linejoin="round"/>
<path d="M34.453 8.85899V7.43799" stroke="black" stroke-width="2.5" stroke-linecap="round" stroke-linejoin="round"/>
<path d="M34.453 21.656V20.234" stroke="black" stroke-width="2.5" stroke-linecap="round" stroke-linejoin="round"/>
<path d="M34.453 25.922C37.4698 25.922 40.3631 24.7236 42.4963 22.5903C44.6296 20.4571 45.828 17.5638 45.828 14.547C45.828 11.5302 44.6296 8.63688 42.4963 6.50366C40.3631 4.37043 37.4698 3.172 34.453 3.172C31.4362 3.172 28.5429 4.37043 26.4097 6.50366C24.2764 8.63688 23.078 11.5302 23.078 14.547C23.078 17.5638 24.2764 20.4571 26.4097 22.5903C28.5429 24.7236 31.4362 25.922 34.453 25.922Z" stroke="black" stroke-width="2.5" stroke-linecap="round" stroke-linejoin="round"/>
<path d="M18.813 12.234L15.021 9.10602C14.8252 8.94496 14.59 8.83915 14.3396 8.79956C14.0892 8.75996 13.8328 8.78802 13.5969 8.88083C13.361 8.97364 13.1542 9.12783 12.9979 9.32742C12.8416 9.52701 12.7415 9.76475 12.708 10.016L12.12 15.419C9.56623 17.3236 7.66539 19.9728 6.679 23.002H3.172V34.377H7.893C9.43993 37.014 11.6591 39.1932 14.3237 40.692C16.9884 42.1908 20.0031 42.9555 23.06 42.908C26.6811 43.0044 30.2373 41.9341 33.2038 39.8551C36.1703 37.7762 38.3898 34.7987 39.535 31.362" stroke="black" stroke-width="2.5" stroke-linecap="round" stroke-linejoin="round"/>
<path d="M13.144 40.046L11.703 45.828" stroke="black" stroke-width="2.5" stroke-linecap="round" stroke-linejoin="round"/>
<path d="M33.012 40.0649L34.453 45.8279" stroke="black" stroke-width="2.5" stroke-linecap="round" stroke-linejoin="round"/>
</svg>
