<svg width="49" height="49" viewBox="0 0 49 49" fill="none" xmlns="http://www.w3.org/2000/svg">
<path d="M18.814 24.5C18.804 25.2532 18.9437 26.0009 19.2251 26.6997C19.5064 27.3985 19.9238 28.0345 20.4529 28.5707C20.982 29.1069 21.6124 29.5326 22.3074 29.8232C23.0024 30.1138 23.7482 30.2634 24.5015 30.2634C25.2548 30.2634 26.0006 30.1138 26.6956 29.8232C27.3906 29.5326 28.021 29.1069 28.5501 28.5707C29.0792 28.0345 29.4965 27.3985 29.7779 26.6997C30.0592 26.0009 30.199 25.2532 30.189 24.5C30.199 23.7467 30.0592 22.999 29.7779 22.3002C29.4965 21.6014 29.0792 20.9655 28.5501 20.4293C28.021 19.8931 27.3906 19.4674 26.6956 19.1768C26.0006 18.8862 25.2548 18.7366 24.5015 18.7366C23.7482 18.7366 23.0024 18.8862 22.3074 19.1768C21.6124 19.4674 20.982 19.8931 20.4529 20.4293C19.9238 20.9655 19.5064 21.6014 19.2251 22.3002C18.9437 22.999 18.804 23.7467 18.814 24.5Z" stroke="black" stroke-width="2.5" stroke-linecap="round" stroke-linejoin="round"/>
<path d="M24.502 4.59399V8.85999" stroke="black" stroke-width="2.5" stroke-linecap="round" stroke-linejoin="round"/>
<path d="M24.502 40.141V44.407" stroke="black" stroke-width="2.5" stroke-linecap="round" stroke-linejoin="round"/>
<path d="M44.4081 24.5H40.1421" stroke="black" stroke-width="2.5" stroke-linecap="round" stroke-linejoin="round"/>
<path d="M8.86097 24.5H4.59497" stroke="black" stroke-width="2.5" stroke-linecap="round" stroke-linejoin="round"/>
<path d="M38.577 10.425L35.561 13.441" stroke="black" stroke-width="2.5" stroke-linecap="round" stroke-linejoin="round"/>
<path d="M13.442 35.5601L10.426 38.5761" stroke="black" stroke-width="2.5" stroke-linecap="round" stroke-linejoin="round"/>
<path d="M38.577 38.577L35.561 35.561" stroke="black" stroke-width="2.5" stroke-linecap="round" stroke-linejoin="round"/>
<path d="M13.442 13.442L10.425 10.425" stroke="black" stroke-width="2.5" stroke-linecap="round" stroke-linejoin="round"/>
</svg>
