<svg width="48" height="48" viewBox="0 0 48 48" fill="none" xmlns="http://www.w3.org/2000/svg">
<path d="M41.063 19.734L37.84 12.549C37.5351 11.7352 36.9888 11.0339 36.2742 10.5392C35.5597 10.0445 34.7111 9.77998 33.842 9.78101H14.159C13.2897 9.77978 12.4409 10.0442 11.7262 10.539C11.0114 11.0337 10.465 11.735 10.16 12.549L6.93799 19.734" stroke="black" stroke-width="2.5" stroke-linecap="round" stroke-linejoin="round"/>
<path d="M4.09399 32.4709V35.3749C4.09399 36.1292 4.39363 36.8526 4.92698 37.386C5.46034 37.9193 6.18372 38.2189 6.93799 38.2189C7.69227 38.2189 8.41565 37.9193 8.94901 37.386C9.48236 36.8526 9.78199 36.1292 9.78199 35.3749V32.5309" stroke="black" stroke-width="2.5" stroke-linecap="round" stroke-linejoin="round"/>
<path d="M43.906 32.4709V35.3749C43.906 36.1292 43.6064 36.8526 43.073 37.386C42.5397 37.9193 41.8163 38.2189 41.062 38.2189C40.3077 38.2189 39.5844 37.9193 39.051 37.386C38.5177 36.8526 38.218 36.1292 38.218 35.3749V32.5309" stroke="black" stroke-width="2.5" stroke-linecap="round" stroke-linejoin="round"/>
<path d="M6.46412 19.734H41.5371C42.0351 19.734 42.5282 19.8321 42.9883 20.0227C43.4483 20.2132 43.8663 20.4925 44.2185 20.8447C44.5706 21.1968 44.8499 21.6148 45.0405 22.0749C45.231 22.5349 45.3291 23.028 45.3291 23.526V30.635C45.3291 31.1379 45.1294 31.6201 44.7738 31.9757C44.4182 32.3313 43.936 32.531 43.4331 32.531H4.56812C4.06527 32.531 3.58301 32.3313 3.22744 31.9757C2.87188 31.6201 2.67212 31.1379 2.67212 30.635V23.526C2.67212 23.028 2.7702 22.5349 2.96077 22.0749C3.15133 21.6148 3.43065 21.1968 3.78277 20.8447C4.13489 20.4925 4.55292 20.2132 5.01298 20.0227C5.47305 19.8321 5.96615 19.734 6.46412 19.734Z" stroke="black" stroke-width="2.5" stroke-linecap="round" stroke-linejoin="round"/>
<path d="M9.06989 26.844C8.88132 26.844 8.70047 26.7691 8.56713 26.6357C8.4338 26.5024 8.35889 26.3216 8.35889 26.133C8.35889 25.9444 8.4338 25.7636 8.56713 25.6302C8.70047 25.4969 8.88132 25.422 9.06989 25.422" stroke="black" stroke-width="2.5"/>
<path d="M9.07007 26.844C9.25864 26.844 9.43948 26.7691 9.57282 26.6357C9.70616 26.5024 9.78107 26.3216 9.78107 26.133C9.78107 25.9444 9.70616 25.7636 9.57282 25.6302C9.43948 25.4969 9.25864 25.422 9.07007 25.422" stroke="black" stroke-width="2.5"/>
<path d="M38.93 26.844C38.7414 26.844 38.5606 26.7691 38.4272 26.6357C38.2939 26.5024 38.219 26.3216 38.219 26.133C38.219 25.9444 38.2939 25.7636 38.4272 25.6302C38.5606 25.4969 38.7414 25.422 38.93 25.422" stroke="black" stroke-width="2.5"/>
<path d="M38.9299 26.844C39.1185 26.844 39.2993 26.7691 39.4327 26.6357C39.566 26.5024 39.6409 26.3216 39.6409 26.133C39.6409 25.9444 39.566 25.7636 39.4327 25.6302C39.2993 25.4969 39.1185 25.422 38.9299 25.422" stroke="black" stroke-width="2.5"/>
</svg>
