<svg xmlns="http://www.w3.org/2000/svg" xmlns:xlink="http://www.w3.org/1999/xlink" xml:space="preserve" id="Layer_1" x="0" y="0" opacity=".5" version="1.1" viewBox="0 0 547 597"><style>.st3{fill:#fff}</style><defs><path id="SVGID_1_" d="M0 0h547v597H0z"/></defs><clipPath id="SVGID_2_"><use xlink:href="#SVGID_1_" overflow="visible"/></clipPath><g clip-path="url(#SVGID_2_)"><path fill="#ccc" fill-opacity=".3" d="m603.3 397.9-5.1 2.9-42.2-24-.1.1V329l42.2-24 5.2 3v-.4l-5-2.8-42.5 24.2-42.3-24v-47.8l42.3-23.9 42.5 24 5-2.8v-1.2l-5.2 3-42.2-24v-47.9l42.2-24 5.2 3v-.6l-4.9-2.8v-47.8l4.9-2.8v-.7l-5.2 3-42.2-24V39.6l-42.8-24.2-42.7 24.3h-.1v48.4l42.5 24.1V160l-42.4 24-.1.1v48.1l-42.2 24-42.2-24v-48.1L343.3 160v-48.1l-42.7-24.7v-48L257.8 15l-42.7 24.2-.1.1V88l42.7 23.9v47.9l-42.5 23.9-.1.2v48l-42.2 24-42.2-24v-48l-42.8-24.2-42.7 24.2-.1.1v48.5l42.6 24v47.8l-42.2 24-42.3-24v-48l-.4.3v47.9l.2.4L45.1 329v47.7L3 400.7h-.1l-.1 1.2V450l42.6 24v48.1l42.7 24.1 42.8-24.1v-48.5l-42.5-24.1v-47.8l42.5-24.2v-48l42.3-24 42.2 24v48.1l42.8 24.2 42.8-24.2v-48.5l-42.6-24v-47.9l42.2-24 42.2 24v48.1l42.8 24.1 42.6-24 42.2 24v48.1l42.8 24.1 42.6-24 42.5 24.1 5-2.8v-1zM45.8 232.4v-47.8l42.2-24 42.2 24v47.8l-42.2 24-42.2-24zM45.4 473 3.1 449H3v-47.9l37-21 5.2-3 21.2 12L87.6 401v48l-42.2 24zm84.7.4v47.8l-42.2 24-42.2-23.9v-47.9l5.2-3 37-21 42.2 24zm-42-72.5-21.1-12-21.2-12V329L88 305l42 23.8v48l.2.1-42.1 24zm84.7-96.3-42.2 24-7.2-4.2-35-19.7v-48l42.2-24 42.2 24v47.9zM215.9 88V40.2l42.2-24 42.2 24V88l-34.4 19.5-7.7 4.5-42.3-24zm-42.5 216.6v-47.9l42.2-24 42.2 24v47.9l-42.2 24-42.2-24zm126.8 24.2v48l-42.2 24-42.2-24V329l42.2-24 42.2 23.8zm.2-96.4h-.1l-42 24-21.2-12-21.2-11.9v-48l42.2-24 42.3 24v47.9zm.2-48.4-5.6-3.2-36.6-20.8v-47.7l13.7-7.8 28.6-16.2 42.2 24v47.8-.1l-42.3 24zm.2 48.4v-47.9l42.2-24 42.3 24v47.9l-42.3 24-42.2-24zm127 72.2-42.2 24-42.2-24v-47.9l42.2-24 42.2 24v47.9zm170.1-192.4V160l-42.2 24-11-6.2-31.3-17.8v-47.8l42.2-24 42.3 24zM471.1 88V40.2l42.2-24 42.2 24V88l-42.2 24-42.2-24zm-.1 96.4 42.2-24 42.2 24v47.9l-42.1 24-21.2-12-21.1-11.9v-48zm-42.6 120.2v.1h-.1v-48l42.2-24 21.2 12 21.1 12v47.9l-42.2 24-42.2-24zm127 72.2-42.2 24-42.2-24-.2.1V329l42.2-24 42.4 23.8v48z"/><path fill="gray" fill-opacity=".3" d="m603.3 349.8-5.2 3-38.5-21.8-3.8-2.1V281l42.2-24 5.3 3v-.9l-4.7-2.6v-47.9l4.7-2.7v-.4l-5.3 3v48l-42.2 24-42.3-24v-48l-42.5-24v-48l42.5-24.3v-48l42.3-24 42.5 24.1 5-2.8V61l-5.1 2.9L556 40V-8l5.2-3 37-21v.2l5.1 2.9v-1l-4.7-2.6v-48.2l-42.8-24.1L513-80.7v48.2L470.4-8.3v48l-42.2 23.9-42.6-24-42.8 24.2v48.5l42.6 24v47.9l-42.6 24.1v48.1l-42.2 24-42.2-24v-48.2l-42.6-24V136l-42.5-24V63.8l-42.8-24.2-42.8 24.2v48.5l42.5 24v47.9l-42.5 24.1v48.1l-42.2 24-42.2-24h-.5l.2.4 42.2 23.9v47.8L3 352.5l-.2.4v48l.5.3v-48.1l42.2-24 42.2 24v48.1l42.8 24.2 42.8-24.2v-48.5l-42.6-24v-47.9l42.2-24 42.2 24V329l42.6 24v48.2l42.8 24.2 42.8-24.2V353l42.6-24v-48.2l42.2-24 42.2 24V329l42.5 24v48.2l42.8 24.2 42.8-24.2V353l4.9-2.8v-.4zM513.5-32.4v-47.9l42.3-24L598-80.4v48l-42.2 24-42.4-24h.1zM470.7-8 513-32l21 12 21.4 12v47.8l-42.2 24-34-19.3-8.2-4.7h-.3V-8zm-42.4 72.1 42.2-24 42.2 24V112l-42.2 24-37-21-5.2-3V64.1zm-85 48v-48l42.2-24 42.2 24V112l-42.2 24-42.2-23.9zm-254.9 0v-48l42.2-24 42.2 24V112l-21.2 12-21.1 12h-.1l-42-23.9zm-.5 240.6-42.2-24v-47.9l42.2-24 42.2 24v47.8l-42.2 24v.1zm84.7.4v47.8l-42.2 24L88.1 401v-47.9l8.5-4.8 33.9-19.2 42.1 24zm.1-96.7-42.2 24-33.9-19.1-8.5-4.8v-47.9l42.3-24 21.1 12 21.2 12v47.8zm.2-48.2-42.2-24v-47.9l21.2-12 21.1-12 42.3 24v47.9l-33.7 19-8.7 4.9v.1zm42.5 72.3-42-24v-47.9l42.2-24 42.2 24v47.8l-21.1 12-21.2 12-.1.1zm42.7 72.2-42.3-24v-47.9l42.4-24 42.2 23.9v48l-8.5 4.8-33.8 19.1v.1zm84.6 48.2-42.2 24-42.2-23.9v-47.9l42.2-24 21.2 12 21.1 12h-.1v47.8zm42.6-72.1-42.2 24-42.4-24v-47.9l42.2-24 42.4 24v47.9zm42.7-72.3-42.3 24-21.1-12-21.2-12v-47.9l42.2-24 42.2 24h.2v47.9zm.1-48.4v.1l-42.4-24v-47.9l38.5-21.8 3.9-2.2 42.2 24v47.9l-42.2 23.9zm.3 48.4v-47.9l5.4-3 36.8-21 42.2 24v47.8l-42.2 24v.1l-42.2-24zm84.7 96.2-42.2-24v-47.9l21.1-12 21.2-12 42.2 24v47.8l-21.2 12-21.1 12v.1zm84.6 48.2-42.2 24-42.2-23.9v-47.9l21.2-12 21.1-12 42.3 24h-.2v47.8z"/><path d="m407.4 364.4 17.8-10.1zM603.3 445.9l-5.3 3-42.2-24v-45.2a2.8 2.8 0 0 0 2.6-2.8c0-.5 0-.9-.2-1.3l39.9-22.6 5.2 3v-.3l-5.4-3.1-40.2 22.7a2.8 2.8 0 0 0-2.4-1.3 3 3 0 0 0-2.5 1.3L513 352.8v-48l39.8-22.5c.6.8 1.5 1.2 2.5 1.2s1.9-.4 2.4-1.2l40.2 22.6 5.4-3v-.3l-5.1 2.9-39.9-22.6c.2-.4.2-.8.2-1.2 0-1.5-1.1-2.8-2.6-2.9v-45.1l21.1-12 18.7-10.6c.6.8 1.5 1.2 2.5 1.2s1.8-.4 2.4-1.2l2.7 1.5v-.6l-2.3-1.3.2-1.2a3 3 0 0 0-2.7-2.9v-45.1l4.8-2.7v-.4l-4.6 2.6-39.9-22.6.2-1.2c0-1.5-1.1-2.7-2.7-2.9V88l-42.8-24.3-40.1 22.7a2.9 2.9 0 0 0-2.5-1.3 2.9 2.9 0 0 0-.2 5.7v45.6l42.6 24v45.1a3 3 0 0 0-2.7 2.9c0 .4 0 .9.3 1.2l-40.2 22.7v45.4a2.8 2.8 0 0 0-2.6 2.8c0 .5 0 1 .3 1.3l-40 22.6-42.2-24v-45.1a2.9 2.9 0 0 0-.2-5.7c-1.1 0-1.9.4-2.4 1.2l-40-22.5v-48.2l-40.1-22.7c.1-.4.3-.7.3-1.2 0-1.5-1.2-2.7-2.8-2.9V88l-40-22.7.2-1.3c0-1.6-1.3-2.8-2.9-2.8a2.8 2.8 0 0 0-2.9 2.8c0 .5 0 .9.2 1.3L215.5 88v45.3a2.9 2.9 0 0 0 .2 5.7c1.1 0 1.9-.4 2.4-1.2l40 22.6v45.1a2.9 2.9 0 0 0-2.7 2.9c0 .4 0 .9.2 1.2l-40.1 22.8v48L175.6 303a2.9 2.9 0 0 0-2.4-1.2c-1.1 0-1.9.4-2.4 1.2l-40-22.6v-45.1a2.9 2.9 0 0 0-.2-5.7c-1.1 0-1.9.4-2.4 1.2L88 208.1l-42.8 24.2v45.4a2.9 2.9 0 0 0 .3 5.7 3 3 0 0 0 2.4-1.3l39.9 22.6v45.2a2.8 2.8 0 0 0-2.7 2.8c0 .5 0 .9.3 1.3l-39.9 22.6L5.6 354l.2-1.3c0-1.5-1.1-2.8-2.7-2.8v-45.4l-.4.3V350a3 3 0 0 0-2.7 2.8c0 .5 0 1 .2 1.3l.3.4c.5.8 1.4 1.3 2.4 1.3 1.1 0 1.9-.5 2.4-1.3L45.2 377v45.3a2.8 2.8 0 0 0-2.6 2.8c0 .5 0 .9.2 1.3L2.9 449l-.2.4v45.2a2.9 2.9 0 0 0 .2 5.7c1.1 0 1.9-.5 2.4-1.3l39.9 22.6v48.1l40.2 22.7a2.8 2.8 0 0 0 2.6 4.1c1.7 0 2.9-1.2 2.9-2.8l-.1-1.3 40-22.6v-48.5l-40.1-22.7c.2-.5.2-.8.2-1.3 0-1.5-1.1-2.8-2.7-2.8v-45.2l40-22.6c.5.8 1.3 1.3 2.3 1.3 1.7 0 3-1.3 3-2.8a3 3 0 0 0-2.7-3v-45l42.2-24 42.3 24v48l40.1 22.7c-.1.5-.3.8-.3 1.3 0 1.6 1.3 2.8 2.9 2.8 1.7 0 3-1.2 3-2.8l-.2-1.3 40-22.7v-45.3a2.9 2.9 0 0 0-.2-5.7c-1 0-1.8.4-2.4 1.2l-39.9-22.6v-45.1a3 3 0 0 0 2.7-2.9l-.3-1.2 39.2-22.7 39.9 22.6c-.2.4-.2.8-.2 1.2 0 1.5 1.1 2.7 2.6 2.9V353l42.8 24.1 22.4-12.7-21.9 12.4-42.2-24v-45.1a3 3 0 0 0 2.7-2.9c0-.4 0-.9-.3-1.2l18.8-10.6 21.1-12 42.1 23.9h.1v45.2a2.8 2.8 0 0 0-2.6 2.9c0 .4 0 .9.2 1.2l-.2.1c.5.8 1.4 1.3 2.4 1.3s1.9-.5 2.4-1.3l39.9 22.8v48l40.2 22.7a2.8 2.8 0 0 0 2.6 4.1c1.7 0 2.9-1.2 2.9-2.8 0-.5 0-.9-.2-1.3l39.9-22.5 42.6 24 5.4-3v-.4zM258 160h-.1l-40-22.6c.2-.4.3-.7.3-1.2 0-1.5-1.2-2.7-2.7-2.9V88.2l39.9-22.6a3 3 0 0 0 2.4 1.3c1.1 0 1.9-.5 2.4-1.3l40 22.6v45.1c-1.5.2-2.7 1.4-2.7 2.9 0 .5 0 .9.2 1.2L265.2 156l-7.2 4zM48.1 281.9l.3-1.2a3 3 0 0 0-2.7-2.9v-45.1l42.2-24 39.9 22.6c-.2.4-.2.8-.2 1.2 0 1.5 1.1 2.7 2.6 2.9v45.2l-5.4 3L88 304.5 48 281.9zM5.5 498.5l.2-1.3c0-1.5-1.2-2.8-2.7-2.8v-45.2l37-21 2.9-1.6a3 3 0 0 0 4.9 0l18.7 10.6 21.2 12v45.2a2.8 2.8 0 0 0-2.7 2.8c0 .5 0 .9.2 1.3L45.4 521 5.5 498.5zm84.9.5 39.8 22.3v48l-39.8 22.5c-.6-.8-1.5-1.2-2.5-1.2s-1.8.4-2.4 1.2l-40-22.5v-47.9l40-22.6c.6.8 1.4 1.2 2.4 1.2v.3a3 3 0 0 0 2.5-1.3zm39.8-76.7a2.8 2.8 0 0 0-2.6 2.8c0 .5 0 .9.2 1.3L87.9 449l-21.1-12L48 426.3c.1-.5.3-.8.3-1.3 0-1.5-1.2-2.8-2.8-2.8V377l40-22.6a3 3 0 0 0 4.9 0l34.7 19.6 5 3h.1v45.3zm42.5-69.7-42.2 24L90.6 354c.2-.5.2-.8.2-1.2a3 3 0 0 0-2.7-3v-45l42.2-24 40 22.6-.3 1.2c0 1.5 1.2 2.8 2.7 2.9v45.1zm.2.1v-45.1a2.9 2.9 0 0 0 2.7-2.9c0-.4 0-.9-.3-1.2l40-22.6 21.1 12 18.8 10.6-.3 1.2c0 1.5 1.2 2.8 2.7 2.9v45.1l-42.2 24-42.5-24zm124.9 23-.2 1.3c0 1.5 1.2 2.7 2.7 2.8V425l-39.9 22.6a3 3 0 0 0-2.4-1.3c-1.1 0-1.9.5-2.4 1.3l-40-22.6v-48l1.5-.8 40.9-23v.1l39.8 22.4zm2.5-95.2-39.9 22.6a2.9 2.9 0 0 0-2.4-1.2 3 3 0 0 0-2.5 1.2l-18.7-10.6-21.2-12v-47.8l39.9-22.6c.5.8 1.4 1.2 2.5 1.2 1 0 1.8-.4 2.4-1.2l36.3 20.6 3.5 2h.1v47.8zm-39.6-70.9c.2-.4.2-.8.2-1.2 0-1.5-1.1-2.8-2.7-2.9v-45.1l40-22.6c.5.8 1.4 1.2 2.4 1.2s1.9-.4 2.4-1.2l39.7 22.6v47.8l-21.1 12-21.1 12-39.8-22.6zm124.6 70.9-21.2 12-18.7 10.6a2.9 2.9 0 0 0-2.4-1.2c-1.1 0-1.9.4-2.4 1.2l-40-22.6v-47.8l42.4-24 39.8 22.6-.2 1.2c0 1.5 1.2 2.8 2.7 2.9v45.1zm172.8-142.7 40 22.6v45.1a3 3 0 0 0-2.7 2.9c0 .4 0 .9.2 1.2l-18.7 10.6-21.2 12-39.8-22.6.2-1.2a3 3 0 0 0-2.7-2.9v-45.1l21.2-12 18.7-10.6c.6.8 1.4 1.2 2.4 1.2 1.1 0 1.9-.4 2.4-1.2zM513.2 160v.1l-42.2-24V90.9a2.8 2.8 0 0 0 2.6-2.8c0-.5 0-.9-.2-1.3l39.9-22.6 42.2 24v45.1c-1.5.2-2.7 1.4-2.7 2.9 0 .5 0 .9.3 1.2L534.3 148l-21.1 12zm-42.4 72.7 39.9-22.6c.6.8 1.5 1.2 2.5 1.2s1.8-.4 2.4-1.3l31.7 18 8.2 4.7v45.1a3 3 0 0 0-2.7 2.9c0 .4 0 .9.3 1.2l-39.9 22.6-21.2-12-18.7-10.6c.2-.4.2-.8.2-1.2 0-1.5-1.1-2.8-2.7-2.9v-45.1zm-40.1 121.4c.1-.5.3-.8.3-1.3 0-1.4-1.2-2.7-2.8-2.8v-45.2l40-22.5c.6.8 1.4 1.2 2.4 1.2a3 3 0 0 0 2.5-1.2l18.7 10.5 21.1 12v47.9l-42.2 24-40-22.6zm125 70.9-40 22.6a2.8 2.8 0 0 0-2.4-1.3c-1.1 0-1.9.5-2.4 1.3L471 425.1v-48l2.2-1.3 40-22.6v.1l40 22.6-.3 1.2c0 1.6 1.2 2.8 2.8 2.9v45z" class="st3"/></g></svg>