<svg xmlns="http://www.w3.org/2000/svg" xmlns:xlink="http://www.w3.org/1999/xlink" xml:space="preserve" id="Layer_1" x="0" y="0" opacity=".5" version="1.1" viewBox="0 0 547 597"><style>.st1{fill:#ccc;fill-opacity:.3}.st3{fill:#fff}</style><defs><path id="SVGID_1_" d="M0 0h547v597H0z"/></defs><clipPath id="SVGID_2_"><use xlink:href="#SVGID_1_" overflow="visible"/></clipPath><g clip-path="url(#SVGID_2_)"><path d="M-49 306.1v.1l40 22.7z" class="st1"/><path d="M543.9 256.4v48l-42.3 24-42.2-24v-47.8l42.6-24V184l-.1-.1-42.7-24.2-42.8 24.2v48l-42.2 24-42.2-24v-48l-.1-.2-42.5-23.9v-47.9L332 88V39.3l-.1-.1L289.2 15l-42.8 24.2v48L203.7 112v48.1l-42.6 24.1v48.1l-42.2 24-42.2-24v-48.1l-.1-.1-42.4-24v-47.8l42.5-24.1V39.7h-.1L33.9 15.3-8.9 39.6v48.1L-49 110.5v.6l40.4-22.9 42.2 24V160L2.3 178l-11 6.2-40.3-23v.4L-9 184.4v47.9L-49 255.1v.9L-9 233.3l42.3 23.9V305l-42.3 24H-9v47.8l-40 22.8v.7L-9 377.6l42.6 24 42.8-24.1v-48.1l42.2-24 42.6 24 42.8-24.1v-48.1l42.2-24 42.2 24v47.9l-42.6 24v48.5l42.8 24.2 42.8-24.2v-48.1l42.2-24 42.3 24v48l42.5 24.2v47.8L416 473.6v48.5l42.8 24.1 42.7-24.1V474l42.6-24v-48.1l-.1-1.2-42.1-24V329l42.2-24 .2-.4v-47.9l-.4-.3zM-8.5 88V40.2l42.2-24 42.2 24V88l-42.2 24-42.2-24zm.2 144.3h-.1v-47.9l42.2-24 42.2 24v48l-21 11.9-21.2 12-42.1-24zm84.5 144.6-.2-.1-42.2 24-42.2-24v-48L34 305l42.2 24v47.9zm42.5-72.2h-.1v-.1l-42.2 24-42.2-24v-47.9l21.1-12 21.2-12 42.2 24v48zm128-264.6 42.2-23.9 42.2 24V88l-42.3 24-7.7-4.5L246.7 88V40.1zm-43.1 264.5-42.2 24-42.2-24v-47.9l42.2-24 42.2 24v47.9zm42.6-72.2-42.2 24-42.3-24v-47.9l42.3-24 42.2 24v47.9zm-42-72.2-.1-.1v-47.8l42.2-24 28.6 16.2 13.7 7.8V160l-36.5 21-5.6 3.2-42.3-24zm42.6 72.1-.2.1v-47.9l42.3-24 42.2 24v48L310 244.3l-21.2 12-42-24zm84.4 144.5-42.2 24-42.2-24v-48L289 305l42.2 24v47.8zm42.4-72.2-42.2 24-42.2-24v-47.9l42.2-24 42.2 24v47.9zm43.2-120 42.2-24 42.2 24v47.8l-42.2 24-42.2-24v-47.8zm-42.6 120v-47.9l42.2-24 42.2 24v48l-35 19.7-7.2 4.2-42.2-24zm42.6 72.3v-48.1L459 305l42.2 24v47.9l-21.2 12-21.1 12-42.1-24zm84.4 144.4L459 545.2l-42.2-24v-47.8l42.2-24 37 21 5.2 3v47.9zm5.7-141.1 37 21V449h-.1v.1l-42.3 24-42.2-24v-48l21.2-11.9 21.2-12 5.2 3z" class="st1"/><path fill="gray" fill-opacity=".3" d="M501.8 328.5v-47.8l42.2-24 .2-.4h-.5l-42.2 24-42.2-24v-48.1l-42.5-24.1v-47.9l42.5-24V63.8l-42.8-24.2-42.8 24.2V112l-42.5 24v48.2l-42.6 24v48.2l-42.2 24-42.2-24v-48.1l-42.6-24.1v-47.9l42.6-24V63.8l-42.8-24.2-42.6 24-42.2-23.9v-48L34-32.5v-48.2l-42.8-24.1L-49-82.2v.7l40.2-22.8 42.3 24v47.9h.1l-21.2 12-21.2 12L-49-31.3v.5L-14.2-11-9-8v48l-40 22.7v.5l40.3-22.9 42.3 24v48L76 136.5v48l-42.5 24v48l-42.3 24-40.2-22.9v.5L-8.8 281v47.9l-3.8 2.1-36.4 20.6v.5l40.5-23 21.1 12 21.2 12V401l-42.2 23.9-40.6-23.1v.8l40.4 22.8 42.8-24.2V353l42.5-24v-48.2l42.2-24 42.2 24V329l42.6 24v48.2l42.8 24.2 42.8-24.2V353l42.6-24v-48.2l42.2-24 42.2 24v47.9l-42.6 24v48.5l42.8 24.2 42.8-24.2v-48.1l42.2-24 42.2 24v48.1l.5-.3v-48l-.2-.4-42.2-24zM374.1 64.1l42.2-24 42.2 24v48l-42 23.9h-.1l-21.1-12-21.2-12V64.1zm-254.9 0 42.2-24 42.2 24v48L161.5 136h-.1l-42.2-24V64.1zM-8.2 39.8V-8L13-20l21-12L76.3-8v47.8H76l-8 4.7-34 19.3-42.2-24zM34.2 112V64.1l42.2-24 42.2 24v48-.1l-5.2 3-37 21-42.2-24zm42 216.7-42.2 24v-.1l-21.1-12-21.2-12v-47.8l42.2-24 21.2 12 21.1 12v47.9zm42.5-72.2-42.2 24v-.1l-42.2-24v-47.8l42.2-24 36.8 21 5.4 3v47.9zm-41.9-72.3v-47.9l42.2-24 3.9 2.2 38.5 21.8v47.9l-42.4 24v-.1l-42.2-23.9zm42.3 72.3v-47.9h.2l42.2-24 42.2 24v47.9l-21.2 12-21.1 12-42.3-24zm42.7 72.3v-47.9l42.4-24 42.2 24v47.9l-42.4 24-42.2-24zm127 72.2-42.2 23.9-42.2-24v-47.8h-.1l21.1-12 21.2-12 42.2 24V401zm42.5-72.3-42.3 24v-.1l-33.8-19.1-8.5-4.8v-48l42.2-23.9 42.4 24v47.9zm42.2-72.2-42 24-.1-.1-21.2-12-21.1-12v-47.8l42.2-24 42.2 24v47.9zm.5-48.3v-.1l-8.7-4.9-33.7-19v-47.9l42.3-24 21.1 12 21.2 12v47.9l-42.2 24zm.2 48.2v-47.8l21.2-12 21.1-12 42.3 24v47.9l-8.5 4.8-33.9 19.1-42.2-24zM458.8 401l-42.3 23.9-42.2-24v-47.8l42.1-24 33.9 19.2 8.5 4.8V401zm42.4-72.3-42.2 24v-.1l-42.2-24v-47.8l42.2-24 42.2 24v47.9z"/><path d="M541.6 354.4c.5.8 1.3 1.3 2.4 1.3 1 0 1.9-.5 2.4-1.3l.3-.4c.2-.3.2-.8.2-1.3a3 3 0 0 0-2.7-2.8v-45.2l-.4-.3v45.4a2.9 2.9 0 0 0-2.7 2.8l.2 1.3-39.9 22.6-39.9-22.6c.3-.4.3-.8.3-1.3 0-1.5-1.2-2.7-2.7-2.8v-45.2L499 282a3 3 0 0 0 2.4 1.3 2.9 2.9 0 0 0 .3-5.7v-45.4L459 208.1l-40.2 22.7a2.9 2.9 0 0 0-2.4-1.2 2.9 2.9 0 0 0-.2 5.7v45.1l-40 22.6a2.9 2.9 0 0 0-2.4-1.2c-1 0-1.8.4-2.4 1.2l-39.9-22.6v-48l-40.1-22.8c.2-.3.2-.8.2-1.2 0-1.5-1-2.8-2.6-2.9a2.9 2.9 0 0 0-2.7 2.9c0 .4 0 .8.2 1.2l-39.9 22.6-21.2-12-21.1-12v-47.8l39.9-22.6c.5.8 1.4 1.2 2.4 1.2s1.9-.4 2.4-1.2l40 22.6 39.9-22.6c.5.8 1.3 1.2 2.4 1.2a2.9 2.9 0 0 0 .2-5.7 2.9 2.9 0 0 0-2.7 2.9c0 .5.1.8.3 1.2L289 160l-7.2-4-32.5-18.6c.2-.3.2-.7.2-1.2 0-1.5-1.2-2.7-2.7-2.9V88.2l40-22.6c.5.8 1.3 1.3 2.4 1.3a3 3 0 0 0 2.4-1.3l39.9 22.6V88l-40.1-22.7c.2-.4.2-.8.2-1.3 0-1.6-1.3-2.8-2.9-2.8a2.8 2.8 0 0 0-2.9 2.8l.2 1.3L246 88v45.3a2.9 2.9 0 0 0-2.8 2.9c0 .5.2.8.3 1.2l-40.1 22.7v48.2l-40 22.5a2.9 2.9 0 0 0-2.4-1.2 2.9 2.9 0 0 0-.2 5.7v45.1l-42.2 24-40-22.6c.3-.3.3-.8.3-1.3 0-1.4-1.1-2.7-2.6-2.8v.1a2.9 2.9 0 0 0-2.7 2.9c0 .4 0 .8.2 1.2l-18.7 10.6-21.2 12L-6 281.9c.3-.3.3-.8.3-1.2a3 3 0 0 0-2.7-2.9v-45.1l8.2-4.7 31.7-18c.6.9 1.4 1.3 2.4 1.3s1.9-.4 2.5-1.2l39.9 22.6v-.4L36 209.6c.3-.3.3-.8.3-1.2a3 3 0 0 0-2.7-2.9 2.9 2.9 0 0 0-2.6 2.9l.2 1.2-39.8 22.6-21.2-12-18.7-10.6c.2-.3.2-.8.2-1.2 0-.7-.3-1.4-.7-1.9v4l.4-.4 18.7 10.6 21.1 12v45.1a2.9 2.9 0 0 0-2.6 2.9c0 .4 0 .8.2 1.2L-49 303.3v.5l38.3-21.5c.5.8 1.4 1.2 2.4 1.2s1.9-.4 2.5-1.2L34 304.8v48l-39.8 22.5a2.9 2.9 0 0 0-2.5-1.3c-1 0-1.9.5-2.4 1.3L-49 353.7v.5l37.8 21.4c-.2.4-.2.8-.2 1.3 0 1.5 1.1 2.7 2.6 2.8V425L-49 447.8v.4l40.6-22.9 39.9 22.5c-.2.4-.2.8-.2 1.3 0 1.6 1.2 2.8 2.9 2.8a2.8 2.8 0 0 0 2.6-4.1L77 425.1v-48l39.9-22.7c.5.8 1.3 1.3 2.4 1.3 1 0 1.9-.5 2.4-1.3l40.2 22.7 42.8-24.1v-45.4a2.9 2.9 0 0 0 2.6-2.9c0-.4 0-.8-.2-1.2l39.9-22.6 39.2 22.7a4 4 0 0 0-.3 1.2 3 3 0 0 0 2.7 2.9v45.1l-39.9 22.6a2.9 2.9 0 0 0-2.4-1.2 2.9 2.9 0 0 0-.2 5.7v45.3l40 22.7a4 4 0 0 0-.2 1.3c0 1.6 1.3 2.8 3 2.8 1.6 0 2.9-1.2 2.9-2.8 0-.5-.2-.8-.3-1.3l40.1-22.7v-48l42.3-24 42.2 24v45a2.9 2.9 0 0 0 .2 5.7c1 0 1.9-.4 2.4-1.2l40 22.6v45.2a2.9 2.9 0 0 0-2.7 2.8c0 .5 0 .8.2 1.3l-40.1 22.7v48.5l40 22.6-.1 1.3c0 1.6 1.2 2.8 2.9 2.8a2.8 2.8 0 0 0 2.6-4.1l40.2-22.7v-48.1l39.9-22.6c.5.8 1.3 1.3 2.4 1.3a2.9 2.9 0 0 0 .2-5.7v-45.2l-.2-.4-39.9-22.6c.2-.4.2-.8.2-1.3 0-1.5-1.1-2.7-2.6-2.8V377l39.9-22.6zM76 425l-39.9 22.5a2.9 2.9 0 0 0-2.4-1.3c-1 0-1.9.5-2.4 1.3l-40-22.6V380c1.6 0 2.8-1.3 2.8-2.9l-.3-1.2 40-22.6v-.1l40 22.6L76 377v48zm42.9-75a2.9 2.9 0 0 0-2.8 2.8c0 .5.2.8.3 1.3l-40 22.6h-.1l-42.2-24v-47.9l21.1-12L74 282.4a3 3 0 0 0 2.5 1.2c1 0 1.8-.4 2.4-1.2l40 22.5V350zm84.9 2.8-42.2 24-39.9-22.6c.2-.3.2-.8.2-1.2 0-1.5-1.1-2.8-2.6-2.9v-45.2l42.2-23.9 21.1 12 18.8 10.6c-.3.3-.3.8-.3 1.2a3 3 0 0 0 2.7 2.9v45.1zm42.6-72.3-40 22.6a2.9 2.9 0 0 0-2.4-1.2c-1 0-1.8.4-2.4 1.2l-18.7-10.6-21.2-12v-45.1a2.9 2.9 0 0 0 2.7-2.9l-.2-1.2 39.8-22.6 42.4 24v47.8zm170.4-45.1a2.9 2.9 0 0 0 2.6-2.9c0-.4 0-.8-.2-1.2l39.9-22.6 42.2 24v45.1a2.9 2.9 0 0 0-2.7 2.9l.3 1.2-39.8 22.6-36.9-20.9-5.4-3v-45.2zm-130.2 67.7-39.9-22.6v-47.8h.1l3.5-2 36.3-20.6c.6.8 1.4 1.2 2.4 1.2 1.1 0 2-.4 2.5-1.2l39.9 22.6v47.8l-21.2 12-18.7 10.6a2.9 2.9 0 0 0-2.5-1.2c-1 0-1.8.4-2.4 1.2zM331.4 425l-40 22.6a2.9 2.9 0 0 0-2.4-1.3 3 3 0 0 0-2.4 1.3L246.7 425v-45.2a2.9 2.9 0 0 0 2.7-2.8l-.2-1.3 39.8-22.4v-.1l40.9 23 1.5.8v48zm42.7-72.3-42.5 24-42.2-24v-45.1a2.9 2.9 0 0 0 2.7-2.9l-.3-1.2 18.8-10.6 21.1-12 40 22.6c-.3.3-.3.8-.3 1.2 0 1.5 1.1 2.8 2.7 2.9v45.1zm.2-.1v-45.1a2.9 2.9 0 0 0 2.7-2.9l-.3-1.2 40-22.6 42.2 24v45a2.9 2.9 0 0 0-2.7 3c0 .4 0 .7.2 1.2l-39.9 22.6-42.2-24zm44.9 73.8c.2-.4.2-.8.2-1.3 0-1.5-1.1-2.7-2.6-2.8V377h.1l5-3 34.7-19.6a3 3 0 0 0 4.9 0l40 22.6v45.2a2.9 2.9 0 0 0-2.8 2.8c0 .5.2.8.3 1.3L480.2 437l-21.1 12-39.9-22.6zm82.3 142.9-40 22.5a2.9 2.9 0 0 0-2.4-1.2 3 3 0 0 0-2.5 1.2l-39.8-22.5v-48l39.8-22.5a3 3 0 0 0 2.5 1.3v-.1c1 0 1.8-.4 2.4-1.2l40 22.6v47.9zm2.6-142.7 2.9 1.6 37 21v45.2a2.9 2.9 0 0 0-2.7 2.8l.2 1.3-39.9 22.5-39.8-22.5c.2-.4.2-.8.2-1.3 0-1.5-1.2-2.7-2.7-2.8v-45.2l21.2-12 18.7-10.6a3 3 0 0 0 4.9 0zM-49 158.5v.8l38-21.5c.5.8 1.3 1.2 2.4 1.2 1 0 1.8-.4 2.4-1.2l18.7 10.6 21.2 12 42.5-24V90.8a2.9 2.9 0 0 0-.2-5.7c-1.1 0-2 .5-2.5 1.3l-40-22.6L-9.3 88v45.3a2.9 2.9 0 0 0-2.7 2.9l.2 1.2-37.2 21zm40.6-70.3 42.2-24 39.9 22.6c-.2.4-.2.8-.2 1.3 0 1.5 1.1 2.7 2.6 2.8v45.2L34 160h-.2l-21.1-12L-6 137.5c.3-.3.3-.7.3-1.2 0-1.5-1.2-2.7-2.7-2.9V88.2z" class="st3"/><path d="M288.9 205.5h.1v-45.1h-.1v45.1zM33.6 205.5h.1v-45.1h-.1v45.1z" class="st3"/></g></svg>