<svg width="17" height="20" viewBox="0 0 17 20" fill="none" xmlns="http://www.w3.org/2000/svg">
<path id="Vector" d="M0.483894 19.6606C0.271912 19.4745 0.119436 19.2245 0.0470829 18.9444C-0.0252705 18.6643 -0.0140133 18.3676 0.0793324 18.0945L2.40471 10.9558C2.42762 10.8852 2.471 10.8239 2.52878 10.7805C2.58655 10.7371 2.65581 10.7138 2.72683 10.7139H8.83861C8.93182 10.7141 9.02407 10.6942 9.10965 10.6553C9.19522 10.6165 9.27228 10.5596 9.33605 10.4882C9.39981 10.4168 9.44892 10.3323 9.48031 10.2401C9.5117 10.1479 9.52472 10.0499 9.51854 9.95223C9.50313 9.76855 9.42223 9.59777 9.29205 9.47409C9.16187 9.35041 8.99201 9.28296 8.81651 9.28525H2.73363C2.66271 9.28538 2.59353 9.26221 2.53577 9.21898C2.47801 9.17575 2.43456 9.11463 2.41151 9.04417L0.0793324 1.90108C-0.0120029 1.62726 -0.0218143 1.33072 0.0512066 1.0509C0.124228 0.771083 0.276617 0.521255 0.488102 0.334653C0.699589 0.148052 0.960144 0.0335226 1.23511 0.00630215C1.51007 -0.0209183 1.7864 0.0404605 2.02735 0.182273L16.3069 8.74952C16.5171 8.8738 16.6922 9.05462 16.814 9.27343C16.9358 9.49224 17 9.74116 17 9.99465C17 10.2481 16.9358 10.497 16.814 10.7159C16.6922 10.9347 16.5171 11.1155 16.3069 11.2398L2.0316 19.8124C1.79016 19.9576 1.5119 20.021 1.23488 19.9939C0.957848 19.9667 0.695566 19.8503 0.483894 19.6606Z" fill="#5247A5"/>
</svg>
